<?xml version="1.0" encoding="UTF-8"?><svg id="_レイヤー_2" xmlns="http://www.w3.org/2000/svg" xmlns:xlink="http://www.w3.org/1999/xlink" viewBox="0 0 979.08 213.24"><defs><style>.cls-1{fill:#202123;}.cls-2{fill:#1c1d1e;}.cls-3{fill:url(#_名称未設定グラデーション_318);fill-opacity:.65;}.cls-4{fill:url(#_名称未設定グラデーション_402);fill-opacity:.65;}</style><linearGradient id="_名称未設定グラデーション_402" x1="-523.76" y1="-1665.57" x2="-419.58" y2="-1748.84" gradientTransform="translate(539 -1588.63) scale(1 -1)" gradientUnits="userSpaceOnUse"><stop offset=".13" stop-color="#636a75"/><stop offset=".36" stop-color="#666d79" stop-opacity=".66"/><stop offset=".69" stop-color="#5c6676" stop-opacity=".26"/><stop offset="1" stop-color="#58616f" stop-opacity="0"/></linearGradient><linearGradient id="_名称未設定グラデーション_318" x1="-415.3" y1="-1622.4" x2="-286.69" y2="-1660.25" gradientTransform="translate(539 -1588.63) scale(1 -1)" gradientUnits="userSpaceOnUse"><stop offset="0" stop-color="#616a74"/><stop offset=".24" stop-color="#646978" stop-opacity=".65"/><stop offset=".54" stop-color="#5f6877" stop-opacity=".33"/><stop offset="1" stop-color="#596271" stop-opacity="0"/></linearGradient></defs><g id="_レイヤー_1-2"><g><g><path class="cls-1" d="m84.44,182.95h84.44l-84.44-84.44H0l84.44,84.44Z"/><path class="cls-1" d="m110.16,84.44l84.44,84.44,84.44-84.44L194.6,0l-84.44,84.44Z"/><path class="cls-1" d="m220.33,182.95h84.44l-42.22-42.22-42.22,42.22Z"/></g><path class="cls-4" d="m0,98.51l168.87,84.44-84.44-84.44H0Z"/><path class="cls-3" d="m110.16,84.44h168.88L194.6,0l-84.44,84.44Z"/><g><path class="cls-2" d="m422.28,182.95l-41.77-47.47v47.47h-22.08v-106.54h22.08v47.78l41.77-47.78h26.04l-46.96,52.81,48.18,53.73h-27.26Z"/><path class="cls-2" d="m519.24,184.02c-7.38,0-14.05-1.26-20.01-3.79-5.86-2.53-10.51-6.16-13.95-10.91-3.43-4.75-5.2-10.36-5.31-16.83h22.74c.3,4.35,1.82,7.78,4.55,10.31,2.83,2.53,6.67,3.79,11.52,3.79s8.84-1.16,11.67-3.49c2.83-2.43,4.24-5.56,4.24-9.4,0-3.13-.96-5.71-2.88-7.73-1.92-2.02-4.35-3.59-7.28-4.7-2.83-1.21-6.77-2.53-11.82-3.94-6.87-2.02-12.48-3.99-16.83-5.91-4.24-2.02-7.93-5-11.07-8.94-3.03-4.04-4.55-9.4-4.55-16.07,0-6.27,1.57-11.72,4.7-16.37,3.13-4.65,7.53-8.18,13.19-10.61,5.66-2.53,12.13-3.79,19.4-3.79,10.91,0,19.76,2.68,26.53,8.03,6.87,5.25,10.66,12.63,11.37,22.13h-23.35c-.2-3.64-1.77-6.62-4.7-8.94-2.83-2.43-6.62-3.64-11.37-3.64-4.14,0-7.48,1.06-10,3.18-2.43,2.12-3.64,5.2-3.64,9.25,0,2.83.91,5.2,2.73,7.12,1.92,1.82,4.24,3.34,6.97,4.55,2.83,1.11,6.77,2.43,11.82,3.94,6.87,2.02,12.48,4.04,16.83,6.06,4.35,2.02,8.08,5.05,11.22,9.1,3.13,4.04,4.7,9.35,4.7,15.92,0,5.66-1.47,10.91-4.4,15.76-2.93,4.85-7.22,8.74-12.89,11.67-5.66,2.83-12.38,4.24-20.16,4.24Z"/><path class="cls-2" d="m574.03,140.51c0-8.45,1.73-15.93,5.19-22.44,3.56-6.62,8.34-11.75,14.35-15.42,6-3.66,12.62-5.49,19.84-5.49,6,0,11.3,1.17,15.87,3.51,4.68,2.24,8.45,5.14,11.3,8.7v-10.99h21.52v114.86h-21.52v-41.9c-2.85,3.66-6.67,6.72-11.45,9.16-4.78,2.44-10.18,3.66-16.18,3.66-7.12,0-13.69-1.83-19.69-5.49-5.9-3.77-10.58-8.96-14.04-15.57-3.46-6.61-5.19-14.15-5.19-22.59Zm66.55.15c0-5.19-1.07-9.67-3.21-13.43s-4.93-6.61-8.39-8.55c-3.36-1.93-6.97-2.9-10.84-2.9s-7.38.97-10.84,2.9c-3.36,1.93-6.11,4.78-8.24,8.55-2.14,3.66-3.2,8.09-3.2,13.28s1.07,9.72,3.2,13.59c2.14,3.77,4.89,6.61,8.24,8.55,3.46,1.93,7.07,2.9,10.84,2.9s7.48-.97,10.84-2.9c3.46-1.93,6.26-4.78,8.39-8.55,2.14-3.77,3.21-8.24,3.21-13.43Z"/><path class="cls-2" d="m765.86,98.38v84.56h-21.52v-10.68c-2.75,3.66-6.36,6.56-10.84,8.7-4.38,2.03-9.16,3.05-14.35,3.05-6.61,0-12.47-1.37-17.55-4.12-5.09-2.85-9.11-6.97-12.06-12.36-2.85-5.5-4.27-12.01-4.27-19.54v-49.61h21.37v46.56c0,6.72,1.68,11.91,5.04,15.57,3.36,3.56,7.94,5.34,13.74,5.34s10.53-1.78,13.89-5.34c3.36-3.66,5.04-8.85,5.04-15.57v-46.56h21.52Z"/><path class="cls-2" d="m784.5,140.36c0-8.55,1.68-16.13,5.04-22.74,3.46-6.61,8.09-11.7,13.89-15.26,5.9-3.56,12.47-5.34,19.69-5.34,6.31,0,11.8,1.27,16.48,3.82,4.78,2.54,8.6,5.75,11.45,9.62v-12.06h21.52v84.56h-21.52v-12.36c-2.75,3.97-6.56,7.28-11.45,9.92-4.78,2.54-10.33,3.82-16.64,3.82-7.12,0-13.64-1.83-19.54-5.49-5.8-3.66-10.43-8.8-13.89-15.42-3.36-6.72-5.04-14.4-5.04-23.05Zm66.55.31c0-5.19-1.02-9.62-3.05-13.28-2.04-3.77-4.78-6.62-8.24-8.55-3.46-2.03-7.17-3.05-11.14-3.05s-7.63.97-10.99,2.9c-3.36,1.93-6.11,4.78-8.24,8.55-2.04,3.66-3.05,8.04-3.05,13.13s1.02,9.56,3.05,13.43c2.14,3.77,4.88,6.66,8.24,8.7,3.46,2.04,7.12,3.05,10.99,3.05s7.68-.97,11.14-2.9c3.46-2.04,6.21-4.89,8.24-8.55,2.03-3.77,3.05-8.24,3.05-13.43Z"/><path class="cls-2" d="m891.01,140.36c0-8.55,1.68-16.13,5.04-22.74,3.46-6.61,8.14-11.7,14.04-15.26,5.9-3.56,12.47-5.34,19.69-5.34,5.49,0,10.74,1.22,15.72,3.66,4.99,2.34,8.95,5.5,11.91,9.46v-40.14h21.68v112.95h-21.68v-12.52c-2.65,4.17-6.36,7.53-11.14,10.07-4.78,2.54-10.33,3.82-16.64,3.82-7.12,0-13.64-1.83-19.54-5.49-5.9-3.66-10.58-8.8-14.04-15.42-3.36-6.72-5.04-14.4-5.04-23.05Zm66.55.31c0-5.19-1.02-9.62-3.05-13.28-2.04-3.77-4.78-6.62-8.24-8.55-3.46-2.03-7.17-3.05-11.14-3.05s-7.63.97-10.99,2.9c-3.36,1.93-6.1,4.78-8.24,8.55-2.04,3.66-3.05,8.04-3.05,13.13s1.02,9.56,3.05,13.43c2.14,3.77,4.88,6.66,8.24,8.7,3.46,2.04,7.12,3.05,10.99,3.05s7.68-.97,11.14-2.9c3.46-2.04,6.21-4.89,8.24-8.55,2.03-3.77,3.05-8.24,3.05-13.43Z"/></g></g></g></svg>